# xmcd
# Copyright (C) 1995-1998 Ti Kan
#
# Track frame offsets:
#       150
#       17391
#       33903
#       50582
#       67687
#       85462
#       105153
#       123995
#       142928
#       160793
#       177374
#       193699
#       209995
#       229434
#
# Disc length: 3343 seconds
#
# Revision: 0
# Processed by: cddbd v1.4PL0 Copyright (c) Steve Scherf et al.
# Submitted via: CD-Transfer v1.0
#
DISCID=b80d0d0e
DTITLE=Dani Kalt - Dani Kalt, Tommy Mustac
DYEAR=03
DGENRE=
TTITLE0=E Handvoll Ziit
TTITLE1=Meh Bruchi Nid
TTITLE2=Sowiit Soguet
TTITLE3=Vo Mensch Zu Mensch
TTITLE4=Brüele Chani Ohni Di
TTITLE5=Hey Du Mi Fründ
TTITLE6=Du Bisch Sexy
TTITLE7=Nöcher Als Nöch
TTITLE8=Scho Lang
TTITLE9=Füechti Augä
TTITLE10=Bliib Jetz Locker
TTITLE11=Hüt Z'nacht
TTITLE12=Im Läbensstrom Vor Ziit
TTITLE13=Blueme Im Räge
EXTD=
EXTT0=
EXTT1=
EXTT2=
EXTT3=
EXTT4=
EXTT5=
EXTT6=
EXTT7=
EXTT8=
EXTT9=
EXTT10=
EXTT11=
EXTT12=
EXTT13=
PLAYORDER=
